<?xml version="1.0" encoding="UTF-8"?>
<svg id="Layer_1" data-name="Layer 1" xmlns="http://www.w3.org/2000/svg" xmlns:xlink="http://www.w3.org/1999/xlink" viewBox="0 0 100 100">
  <defs>
    <style>
      .cls-1 {
        fill: url(#linear-gradient-2);
      }

      .cls-2 {
        fill: url(#linear-gradient-51);
      }

      .cls-3 {
        fill: url(#linear-gradient-17);
      }

      .cls-4 {
        fill: url(#linear-gradient-43);
      }

      .cls-5 {
        fill: url(#linear-gradient-15);
      }

      .cls-6 {
        fill: url(#linear-gradient-58);
      }

      .cls-7 {
        fill: url(#linear-gradient-69);
      }

      .cls-8 {
        fill: url(#linear-gradient-18);
      }

      .cls-9 {
        fill: url(#linear-gradient-56);
      }

      .cls-10 {
        fill: url(#linear-gradient-40);
      }

      .cls-11 {
        fill: url(#linear-gradient-52);
      }

      .cls-12 {
        fill: url(#linear-gradient-28);
      }

      .cls-13 {
        fill: url(#linear-gradient-14);
      }

      .cls-14 {
        fill: url(#linear-gradient-36);
      }

      .cls-15 {
        fill: url(#linear-gradient-20);
      }

      .cls-16 {
        fill: url(#linear-gradient-6);
      }

      .cls-17 {
        fill: url(#linear-gradient-53);
      }

      .cls-18 {
        fill: url(#linear-gradient-60);
      }

      .cls-19 {
        fill: url(#linear-gradient-35);
      }

      .cls-20 {
        fill: url(#linear-gradient-48);
      }

      .cls-21 {
        fill: url(#linear-gradient-32);
      }

      .cls-22 {
        fill: url(#linear-gradient-11);
      }

      .cls-23 {
        fill: url(#linear-gradient-50);
      }

      .cls-24 {
        fill: url(#linear-gradient-63);
      }

      .cls-25 {
        fill: url(#linear-gradient-67);
      }

      .cls-26 {
        fill: url(#linear-gradient-39);
      }

      .cls-27 {
        fill: url(#linear-gradient-10);
      }

      .cls-28 {
        fill: url(#linear-gradient-59);
      }

      .cls-29 {
        fill: url(#radial-gradient);
      }

      .cls-30 {
        fill: #fcdf00;
      }

      .cls-31 {
        fill: url(#linear-gradient-49);
      }

      .cls-32 {
        fill: url(#linear-gradient-37);
      }

      .cls-33 {
        fill: url(#linear-gradient-16);
      }

      .cls-34 {
        fill: url(#linear-gradient-31);
      }

      .cls-35 {
        fill: url(#linear-gradient-61);
      }

      .cls-36 {
        fill: url(#linear-gradient-68);
      }

      .cls-37 {
        fill: url(#linear-gradient-62);
      }

      .cls-38 {
        fill: url(#linear-gradient-41);
      }

      .cls-39 {
        fill: url(#linear-gradient-21);
      }

      .cls-40 {
        fill: url(#linear-gradient-25);
      }

      .cls-41 {
        fill: url(#linear-gradient-5);
      }

      .cls-42 {
        fill: url(#linear-gradient-64);
      }

      .cls-43 {
        fill: url(#linear-gradient-54);
      }

      .cls-44 {
        fill: url(#linear-gradient-45);
      }

      .cls-45 {
        fill: url(#linear-gradient-55);
      }

      .cls-46 {
        fill: url(#radial-gradient-2);
      }

      .cls-47 {
        fill: url(#linear-gradient-34);
      }

      .cls-48 {
        fill: url(#linear-gradient-65);
      }

      .cls-49 {
        fill: url(#linear-gradient-70);
      }

      .cls-50 {
        fill: url(#linear-gradient-7);
      }

      .cls-51 {
        fill: url(#linear-gradient-66);
      }

      .cls-52 {
        fill: url(#linear-gradient-24);
      }

      .cls-53 {
        fill: url(#linear-gradient-9);
      }

      .cls-54 {
        fill: url(#linear-gradient-22);
      }

      .cls-55 {
        fill: url(#linear-gradient-42);
      }

      .cls-56 {
        fill: url(#linear-gradient-3);
      }

      .cls-57 {
        fill: url(#linear-gradient);
      }

      .cls-58 {
        fill: url(#linear-gradient-27);
      }

      .cls-59 {
        fill: url(#linear-gradient-33);
      }

      .cls-60 {
        fill: url(#linear-gradient-38);
      }

      .cls-61 {
        fill: url(#linear-gradient-29);
      }

      .cls-62 {
        fill: url(#linear-gradient-30);
      }

      .cls-63 {
        fill: url(#linear-gradient-23);
      }

      .cls-64 {
        fill: url(#linear-gradient-19);
      }

      .cls-65 {
        fill: url(#linear-gradient-71);
      }

      .cls-66 {
        fill: url(#linear-gradient-4);
      }

      .cls-67 {
        fill: url(#linear-gradient-8);
      }

      .cls-68 {
        fill: url(#linear-gradient-44);
      }

      .cls-69 {
        fill: url(#linear-gradient-57);
      }

      .cls-70 {
        fill: url(#linear-gradient-47);
      }

      .cls-71 {
        fill: url(#linear-gradient-46);
      }

      .cls-72 {
        fill: url(#linear-gradient-12);
      }

      .cls-73 {
        fill: url(#linear-gradient-13);
      }

      .cls-74 {
        fill: url(#linear-gradient-26);
      }
    </style>
    <linearGradient id="linear-gradient" x1="0" y1="50" x2="100" y2="50" gradientUnits="userSpaceOnUse">
      <stop offset=".05" stop-color="#000"/>
      <stop offset=".3" stop-color="#1e1e1e"/>
      <stop offset=".42" stop-color="#181818"/>
      <stop offset=".56" stop-color="#080808"/>
      <stop offset=".62" stop-color="#000"/>
      <stop offset=".99" stop-color="#1e1e1e"/>
    </linearGradient>
    <linearGradient id="linear-gradient-2" x1="33.22" y1="17.56" x2="33.22" y2="84.87" gradientUnits="userSpaceOnUse">
      <stop offset="0" stop-color="#ffff95"/>
      <stop offset=".32" stop-color="#ddac17"/>
      <stop offset=".68" stop-color="#fffa8a"/>
      <stop offset="1" stop-color="#ecc440"/>
      <stop offset="1" stop-color="#f5c230"/>
    </linearGradient>
    <linearGradient id="linear-gradient-3" x1="37.22" y1="17.56" x2="37.22" y2="84.87" xlink:href="#linear-gradient-2"/>
    <linearGradient id="linear-gradient-4" x1="24.35" y1="17.56" x2="24.35" y2="84.87" xlink:href="#linear-gradient-2"/>
    <linearGradient id="linear-gradient-5" x1="29.92" y1="17.56" x2="29.92" y2="84.87" xlink:href="#linear-gradient-2"/>
    <linearGradient id="linear-gradient-6" x1="17.99" y1="17.56" x2="17.99" y2="84.87" xlink:href="#linear-gradient-2"/>
    <linearGradient id="linear-gradient-7" x1="24.38" y1="17.56" x2="24.38" y2="84.87" xlink:href="#linear-gradient-2"/>
    <linearGradient id="linear-gradient-8" x1="14.37" y1="17.56" x2="14.37" y2="84.87" xlink:href="#linear-gradient-2"/>
    <linearGradient id="linear-gradient-9" x1="21.29" y1="17.56" x2="21.29" y2="84.87" xlink:href="#linear-gradient-2"/>
    <linearGradient id="linear-gradient-10" x1="12.9" y1="17.56" x2="12.9" y2="84.87" xlink:href="#linear-gradient-2"/>
    <linearGradient id="linear-gradient-11" x1="19.92" y1="17.56" x2="19.92" y2="84.87" xlink:href="#linear-gradient-2"/>
    <linearGradient id="linear-gradient-12" x1="13.47" y1="17.56" x2="13.47" y2="84.87" xlink:href="#linear-gradient-2"/>
    <linearGradient id="linear-gradient-13" x1="20.61" y1="17.56" x2="20.61" y2="84.87" xlink:href="#linear-gradient-2"/>
    <linearGradient id="linear-gradient-14" x1="16.15" y1="17.56" x2="16.15" y2="84.87" xlink:href="#linear-gradient-2"/>
    <linearGradient id="linear-gradient-15" x1="23.17" y1="17.56" x2="23.17" y2="84.87" xlink:href="#linear-gradient-2"/>
    <linearGradient id="linear-gradient-16" x1="20.89" y1="17.56" x2="20.89" y2="84.87" xlink:href="#linear-gradient-2"/>
    <linearGradient id="linear-gradient-17" x1="27.44" x2="27.44" y2="84.87" xlink:href="#linear-gradient-2"/>
    <linearGradient id="linear-gradient-18" x1="50" y1="17.56" x2="50" y2="84.87" xlink:href="#linear-gradient-2"/>
    <linearGradient id="linear-gradient-19" x1="66.78" y1="17.56" x2="66.78" y2="84.87" xlink:href="#linear-gradient-2"/>
    <linearGradient id="linear-gradient-20" x1="62.79" y1="17.56" x2="62.79" y2="84.87" xlink:href="#linear-gradient-2"/>
    <linearGradient id="linear-gradient-21" x1="75.65" y1="17.56" x2="75.65" y2="84.87" xlink:href="#linear-gradient-2"/>
    <linearGradient id="linear-gradient-22" x1="70.08" y1="17.56" x2="70.08" y2="84.87" xlink:href="#linear-gradient-2"/>
    <linearGradient id="linear-gradient-23" x1="82.01" y1="17.56" x2="82.01" y2="84.87" xlink:href="#linear-gradient-2"/>
    <linearGradient id="linear-gradient-24" x1="75.62" y1="17.56" x2="75.62" y2="84.87" xlink:href="#linear-gradient-2"/>
    <linearGradient id="linear-gradient-25" x1="85.63" y1="17.56" x2="85.63" y2="84.87" xlink:href="#linear-gradient-2"/>
    <linearGradient id="linear-gradient-26" x1="78.71" y1="17.56" x2="78.71" y2="84.87" xlink:href="#linear-gradient-2"/>
    <linearGradient id="linear-gradient-27" x1="87.1" y1="17.56" x2="87.1" y2="84.87" xlink:href="#linear-gradient-2"/>
    <linearGradient id="linear-gradient-28" x1="80.08" y1="17.56" x2="80.08" y2="84.87" xlink:href="#linear-gradient-2"/>
    <linearGradient id="linear-gradient-29" x1="86.53" y1="17.56" x2="86.53" y2="84.87" xlink:href="#linear-gradient-2"/>
    <linearGradient id="linear-gradient-30" x1="79.39" y1="17.56" x2="79.39" y2="84.87" xlink:href="#linear-gradient-2"/>
    <linearGradient id="linear-gradient-31" x1="83.85" y1="17.56" x2="83.85" y2="84.87" xlink:href="#linear-gradient-2"/>
    <linearGradient id="linear-gradient-32" x1="76.83" y1="17.56" x2="76.83" y2="84.87" xlink:href="#linear-gradient-2"/>
    <linearGradient id="linear-gradient-33" x1="79.11" y1="17.56" x2="79.11" y2="84.87" xlink:href="#linear-gradient-2"/>
    <linearGradient id="linear-gradient-34" x1="72.57" y1="17.56" x2="72.57" y2="84.87" xlink:href="#linear-gradient-2"/>
    <linearGradient id="linear-gradient-35" x1="33.77" y1="43.08" x2="67.39" y2="43.08" xlink:href="#linear-gradient-2"/>
    <linearGradient id="linear-gradient-36" x1="33.75" y1="55.37" x2="40.89" y2="55.37" xlink:href="#linear-gradient-2"/>
    <linearGradient id="linear-gradient-37" x1="60.13" y1="55.26" x2="67.41" y2="55.26" xlink:href="#linear-gradient-2"/>
    <linearGradient id="linear-gradient-38" x1="-247.44" y1="-370.69" x2="-247.27" y2="-370.69" gradientTransform="translate(63206.23 28583.8) rotate(80.6) scale(155.55 -155.55)" xlink:href="#linear-gradient-2"/>
    <linearGradient id="linear-gradient-39" x1="59.89" y1="43.03" x2="67.41" y2="43.03" xlink:href="#linear-gradient-2"/>
    <linearGradient id="linear-gradient-40" x1="37.34" y1="45.29" x2="40.89" y2="45.29" xlink:href="#linear-gradient-2"/>
    <linearGradient id="linear-gradient-41" x1="39.3" y1="44.93" x2="49.58" y2="44.93" xlink:href="#linear-gradient-2"/>
    <linearGradient id="linear-gradient-42" x1="39.26" y1="41.94" x2="50.06" y2="41.94" xlink:href="#linear-gradient-2"/>
    <linearGradient id="linear-gradient-43" x1="50.03" y1="41.81" x2="60.5" y2="41.81" xlink:href="#linear-gradient-2"/>
    <linearGradient id="linear-gradient-44" x1="49.42" y1="44.93" x2="59.29" y2="44.93" xlink:href="#linear-gradient-2"/>
    <linearGradient id="linear-gradient-45" x1="-247.7" y1="-371.49" x2="-247.53" y2="-371.49" gradientTransform="translate(54660.15 15843.18) rotate(72.45) scale(127.31 -127.31)" xlink:href="#linear-gradient-2"/>
    <linearGradient id="linear-gradient-46" x1="-247.51" y1="-370.95" x2="-247.34" y2="-370.95" gradientTransform="translate(73041.07 8902.2) rotate(63.22) scale(164.91 -164.91)" xlink:href="#linear-gradient-2"/>
    <linearGradient id="linear-gradient-47" x1="-247.4" y1="-370.99" x2="-247.23" y2="-370.99" gradientTransform="translate(74397.79 9736.31) rotate(63.74) scale(168.17 -168.17)" xlink:href="#linear-gradient-2"/>
    <linearGradient id="linear-gradient-48" x1="-247.48" y1="-370.16" x2="-247.31" y2="-370.16" gradientTransform="translate(44950.47 30045.72) rotate(90) scale(121.27 -121.27)" xlink:href="#linear-gradient-2"/>
    <linearGradient id="linear-gradient-49" x1="-247.43" y1="-370.27" x2="-247.26" y2="-370.27" gradientTransform="translate(52373.84 34986.52) rotate(90) scale(141.28 -141.28)" xlink:href="#linear-gradient-2"/>
    <linearGradient id="linear-gradient-50" x1="-247.5" y1="-370.31" x2="-247.33" y2="-370.31" gradientTransform="translate(42884.56 28671.19) rotate(90) scale(115.7 -115.7)" xlink:href="#linear-gradient-2"/>
    <linearGradient id="linear-gradient-51" x1="-247.51" y1="-370.33" x2="-247.34" y2="-370.33" gradientTransform="translate(43298.47 28947.95) rotate(90) scale(116.82 -116.82)" xlink:href="#linear-gradient-2"/>
    <linearGradient id="linear-gradient-52" x1="-242.71" y1="-369.61" x2="-242.54" y2="-369.61" gradientTransform="translate(-8184.72 2183.44) rotate(-137.75) scale(19.27 -19.27)" xlink:href="#linear-gradient-2"/>
    <linearGradient id="linear-gradient-53" x1="36.29" y1="50.57" x2="39.43" y2="55.82" xlink:href="#linear-gradient-2"/>
    <linearGradient id="linear-gradient-54" x1="-246.06" y1="-365.66" x2="-245.72" y2="-365.66" gradientTransform="translate(2839.01 3964.32) rotate(-17.01) scale(6.21 12.52)" xlink:href="#linear-gradient-2"/>
    <linearGradient id="linear-gradient-55" x1="-244.33" y1="-365.24" x2="-243.79" y2="-365.24" gradientTransform="translate(3267.22 -3057.65) scale(13.23 -8.52)" xlink:href="#linear-gradient-2"/>
    <linearGradient id="linear-gradient-56" x1="-253.09" y1="-365.35" x2="-252.58" y2="-365.35" gradientTransform="translate(3683.35 -3088.75) scale(14.32 -8.61)" xlink:href="#linear-gradient-2"/>
    <linearGradient id="linear-gradient-57" x1="-252.41" y1="-370.69" x2="-252.27" y2="-370.69" gradientTransform="translate(6836.57 -540.5) rotate(-46.92) scale(20.01 12.29)" xlink:href="#linear-gradient-2"/>
    <linearGradient id="linear-gradient-58" x1="-248.86" y1="-368.38" x2="-248.75" y2="-368.38" gradientTransform="translate(3002.37 -4318.43) scale(11.86 -11.86)" xlink:href="#linear-gradient-2"/>
    <linearGradient id="linear-gradient-59" x1="-256.79" y1="-376" x2="-256.54" y2="-376" gradientTransform="translate(2006.83 -4441.29) scale(7.59 -11.9)" xlink:href="#linear-gradient-2"/>
    <linearGradient id="linear-gradient-60" x1="49.42" y1="46.46" x2="58.4" y2="46.46" xlink:href="#linear-gradient-2"/>
    <linearGradient id="linear-gradient-61" x1="-252.74" y1="-374.69" x2="-252.65" y2="-374.69" gradientTransform="translate(3862.93 -5948.49) rotate(6.67) scale(12.2 -17.04)" xlink:href="#linear-gradient-2"/>
    <linearGradient id="linear-gradient-62" x1="-247.99" y1="-443.48" x2="-247.8" y2="-443.48" gradientTransform="translate(3840.28 33434.49) rotate(84.25) scale(135.55 -.93)" xlink:href="#linear-gradient-2"/>
    <linearGradient id="linear-gradient-63" x1="38.02" y1="53.2" x2="39.46" y2="35.07" xlink:href="#linear-gradient-2"/>
    <linearGradient id="linear-gradient-64" x1="-248.01" y1="-387.86" x2="-247.87" y2="-387.86" gradientTransform="translate(-5435.73 45455.68) rotate(95.67) scale(184.45 2.48)" xlink:href="#linear-gradient-2"/>
    <linearGradient id="linear-gradient-65" x1="-247.96" y1="-369.42" x2="-247.82" y2="-369.42" gradientTransform="translate(19642.66 38299.9) rotate(64.04) scale(173.36 -2.37)" xlink:href="#linear-gradient-2"/>
    <linearGradient id="linear-gradient-66" x1="-247.89" y1="-367.99" x2="-247.7" y2="-367.99" gradientTransform="translate(15180.74 29810.48) rotate(64.13) scale(134.75 -1.71)" xlink:href="#linear-gradient-2"/>
    <linearGradient id="linear-gradient-67" x1="-248.24" y1="-320.87" x2="-248.07" y2="-320.87" gradientTransform="translate(13885.41 -29669.32) rotate(-64.74) scale(132.07 -.53)" xlink:href="#linear-gradient-2"/>
    <linearGradient id="linear-gradient-68" x1="-247.86" y1="-391" x2="-247.7" y2="-391" gradientTransform="translate(-16064.12 35367.61) rotate(115.32) scale(156.69 -1.37)" xlink:href="#linear-gradient-2"/>
    <linearGradient id="linear-gradient-69" x1="57.45" y1="35.6" x2="63.86" y2="58.16" xlink:href="#linear-gradient-2"/>
    <linearGradient id="linear-gradient-70" x1="-247.63" y1="-370.97" x2="-247.46" y2="-370.97" gradientTransform="translate(-63042.15 -111635.32) rotate(-63.18) scale(287.62 -287.62)" xlink:href="#linear-gradient-2"/>
    <linearGradient id="linear-gradient-71" x1="37.82" y1="27.35" x2="63.66" y2="64.21" xlink:href="#linear-gradient-2"/>
    <radialGradient id="radial-gradient" cx="-247.49" cy="-373.17" fx="-247.49" fy="-373.17" r=".1" gradientTransform="translate(21732.8 32772.33) scale(87.64)" gradientUnits="userSpaceOnUse">
      <stop offset="0" stop-color="#fff" stop-opacity=".85"/>
      <stop offset=".4" stop-color="#fff" stop-opacity=".5"/>
      <stop offset="1" stop-color="#fff" stop-opacity="0"/>
    </radialGradient>
    <radialGradient id="radial-gradient-2" cx="-249.52" cy="-368.7" fx="-249.52" fy="-368.7" r=".1" gradientTransform="translate(21247.85 31330.76) scale(84.91)" xlink:href="#radial-gradient"/>
  </defs>
  <rect class="cls-57" width="100" height="100"/>
  <g>
    <g>
      <path class="cls-1" d="M38.76,77.99c-.53-.4-1.01-.68-1.53-.87-.52-.18-1.05-.28-1.61-.3-1.12-.05-2.33,.16-3.5,.44-1.17,.29-2.27,.63-3.1,.92-.82,.27-1.36,.49-1.36,.49,0,0,.53,.31,1.37,.67,.85,.36,2.02,.77,3.3,.99,1.27,.22,2.66,.25,3.86-.1,1.2-.34,2.22-1.08,2.56-2.24Z"/>
      <path class="cls-56" d="M35.2,72.82c.45,1.02,1.11,2.01,1.98,2.66,.43,.32,.91,.56,1.43,.66,.51,.1,1.07,.07,1.6-.15,.03-1.22-.31-2.18-.83-3.03-.52-.84-1.26-1.56-2.03-2.19-.77-.62-1.55-1.14-2.14-1.51-.59-.37-1-.59-1-.59,0,0,0,.13,.03,.36,.02,.23,.06,.55,.12,.95,.13,.78,.38,1.82,.84,2.84Z"/>
      <path class="cls-66" d="M26.82,75.54c1.17-.06,2.2-.5,2.92-1.48-.58-1.04-1.46-1.59-2.51-1.92-1.05-.32-2.28-.41-3.48-.45-1.2-.04-2.4,0-3.29,0-.92,.02-1.5,.03-1.5,.03,0,0,.11,.12,.32,.33,.21,.19,.51,.48,.89,.79,.76,.63,1.83,1.36,3.02,1.89,1.18,.54,2.47,.88,3.64,.82Z"/>
      <path class="cls-41" d="M29.04,70.93c.66,.84,1.59,1.39,2.74,1.33,.47-1.12,.39-2.19,.07-3.17-.32-.98-.88-1.88-1.44-2.66-.57-.78-1.15-1.45-1.58-1.93-.21-.24-.39-.43-.51-.56-.12-.13-.19-.2-.19-.2,0,0-.04,.12-.1,.34-.06,.22-.12,.53-.18,.91-.12,.76-.18,1.81-.02,2.91,.16,1.09,.55,2.21,1.21,3.05Z"/>
      <path class="cls-16" d="M14.76,62.57c-.83-.26-1.36-.41-1.36-.41,0,0,.05,.14,.15,.37,.11,.23,.28,.55,.49,.93,.21,.38,.47,.82,.78,1.28,.15,.23,.31,.47,.48,.7l.14,.18,.17,.22c.12,.15,.24,.3,.35,.44,.97,1.15,2.16,2.03,3.33,2.4,1.17,.38,2.31,.26,3.28-.48-.27-1.16-.93-1.96-1.81-2.65-.22-.18-.46-.33-.7-.5-.24-.16-.5-.32-.76-.48-.26-.17-.53-.32-.81-.48-.26-.14-.52-.27-.78-.39-1.05-.5-2.13-.88-2.95-1.14Z"/>
      <path class="cls-50" d="M22.86,64.64c.31,1.01,1.04,1.83,2.14,2.09,.77-.94,1.01-1.97,1.08-2.94,.05-.97-.07-1.89-.17-2.67-.04-.33-.17-.88-.29-1.31-.12-.45-.26-.85-.39-1.18-.12-.34-.24-.61-.32-.8-.07-.19-.11-.3-.11-.3,0,0-.08,.11-.21,.31-.13,.2-.29,.48-.48,.83-.37,.7-.81,1.68-1.11,2.76-.08,.27-.14,.55-.2,.83-.05,.26-.09,.53-.12,.8-.01,.27,0,.54,.02,.81,.03,.27,.09,.53,.16,.78Z"/>
      <path class="cls-67" d="M13.5,58.48c.19,.23,.41,.44,.64,.63,.22,.19,.46,.37,.7,.52,.96,.62,2.03,.88,3.19,.54,.1-.58,.05-1.11-.1-1.61-.08-.24-.18-.48-.31-.71-.12-.23-.29-.44-.43-.66-.63-.87-1.59-1.62-2.56-2.29-.94-.68-1.94-1.26-2.7-1.68-.78-.42-1.27-.68-1.27-.68,0,0,.02,.15,.09,.4,.07,.25,.17,.6,.32,1.03,.29,.84,.69,1.98,1.36,3.01,.32,.52,.68,1.03,1.07,1.49Z"/>
      <path class="cls-53" d="M19.78,58.03c.23,.46,.56,.86,1.02,1.19,1.06-.6,1.66-1.51,1.98-2.49,.08-.25,.14-.5,.19-.75,.02-.12,.04-.25,.06-.38,.02-.13,.04-.26,.06-.39,.07-.52,.08-1.04,.07-1.54-.07-1-.12-1.93-.25-2.62-.06-.34-.12-.62-.16-.81-.03-.2-.05-.3-.05-.3,0,0-.1,.09-.26,.25-.17,.16-.38,.4-.63,.7-.49,.61-1.11,1.47-1.61,2.48-.47,.99-.78,2.12-.77,3.18,0,.27,.04,.52,.1,.77,.06,.25,.15,.49,.26,.72Z"/>
      <path class="cls-27" d="M11.47,48.9c.15,.27,.3,.53,.48,.77,.18,.24,.38,.46,.59,.66,.83,.8,1.83,1.27,3.04,1.15,.2-.55,.27-1.08,.21-1.59-.03-.25-.09-.51-.17-.75-.08-.25-.16-.5-.28-.74-.22-.49-.53-.97-.89-1.43-.18-.23-.37-.46-.55-.69-.19-.23-.38-.45-.57-.66-.79-.87-1.66-1.67-2.27-2.26-.62-.59-1.07-.97-1.07-.97,0,0-.02,.6,.04,1.51,.03,.45,.12,.98,.23,1.54,.05,.28,.11,.57,.19,.87,.07,.29,.14,.59,.26,.89,.21,.59,.47,1.17,.76,1.71Z"/>
      <path class="cls-22" d="M18.45,50.84c1.15-.4,1.92-1.16,2.42-2.04,.13-.22,.24-.45,.33-.68,.11-.23,.21-.47,.29-.71,.17-.48,.29-.97,.37-1.44,.09-.47,.19-.93,.24-1.36,.03-.21,.04-.42,.06-.61,.01-.19,.02-.38,.04-.54,.07-.66,.06-1.1,.06-1.1,0,0-.45,.25-1.08,.7-.16,.11-.33,.24-.51,.38-.18,.14-.37,.3-.54,.47-.36,.33-.72,.72-1.07,1.15-.17,.21-.34,.44-.5,.67-.08,.12-.15,.24-.23,.36-.07,.12-.13,.24-.19,.36-.24,.49-.42,1-.52,1.52-.04,.26-.08,.52-.07,.77,.01,.25,.05,.5,.12,.75,.14,.49,.38,.95,.77,1.35Z"/>
      <path class="cls-72" d="M14.27,36.29c-.27-.52-.56-1.02-.84-1.49-.29-.47-.55-.9-.77-1.26-.45-.73-.78-1.2-.78-1.2,0,0-.17,.57-.35,1.46-.07,.45-.13,.98-.17,1.55-.02,.29-.04,.58-.05,.88,0,.3,.02,.62,.05,.93,.05,.62,.13,1.25,.29,1.85,.18,.6,.41,1.16,.71,1.65,.57,.98,1.49,1.67,2.69,1.84,.16-.24,.27-.49,.36-.74,.08-.25,.17-.5,.2-.75,.08-.5,.04-1.02-.08-1.55-.1-.52-.26-1.06-.49-1.59-.23-.53-.51-1.07-.76-1.59Z"/>
      <path class="cls-73" d="M20.78,40.88c.36-.35,.67-.75,.92-1.17,.28-.41,.53-.84,.73-1.26,.11-.21,.18-.42,.29-.63,.1-.2,.19-.4,.27-.6,.16-.39,.28-.75,.39-1.06,.24-.61,.34-1.03,.34-1.03,0,0-.49,.12-1.23,.39-.75,.27-1.65,.73-2.55,1.36-.22,.16-.45,.33-.65,.52-.2,.18-.39,.38-.57,.58-.36,.41-.68,.85-.9,1.33-.2,.47-.32,.97-.32,1.47,0,.25,.02,.5,.1,.74,.08,.25,.19,.49,.35,.73,1.21-.11,2.08-.67,2.83-1.38Z"/>
      <path class="cls-13" d="M17.25,33.11c.16-.21,.29-.43,.39-.66,.1-.23,.18-.48,.23-.73,.05-.25,.07-.51,.1-.78,.04-.53,0-1.08-.09-1.66s-.18-1.14-.33-1.71c-.29-1.14-.61-2.22-.89-3.04-.28-.82-.48-1.35-.48-1.35,0,0-.08,.12-.2,.35-.12,.23-.28,.56-.46,.97-.39,.8-.77,1.95-1.01,3.16-.1,.61-.16,1.24-.16,1.85,0,.3,.02,.61,.07,.91,.04,.3,.1,.58,.18,.86,.17,.55,.4,1.04,.76,1.46,.36,.42,.81,.76,1.37,1,.22-.19,.39-.4,.54-.61Z"/>
      <path class="cls-5" d="M26.78,28.75c.1-.16,.16-.26,.16-.26,0,0-.13,0-.36,0-.23,0-.55,.03-.93,.08-.38,.05-.83,.12-1.32,.23-.24,.06-.5,.11-.74,.19-.24,.08-.5,.17-.75,.27-.5,.2-1.02,.44-1.47,.74-.44,.3-.85,.66-1.19,1.05-.17,.19-.3,.41-.42,.63-.11,.22-.2,.45-.26,.69-.06,.24-.09,.49-.09,.74,.01,.26,.06,.52,.15,.79,.59,.1,1.15,.07,1.66-.04,.5-.11,.99-.3,1.43-.55,.22-.12,.42-.26,.62-.41,.1-.07,.19-.15,.29-.23,.1-.08,.2-.16,.29-.24,.38-.32,.72-.68,1.02-1.04,.32-.35,.61-.71,.85-1.05,.06-.08,.12-.17,.17-.25,.06-.08,.12-.16,.18-.24,.11-.16,.22-.3,.31-.44,.18-.28,.32-.51,.42-.68Z"/>
      <path class="cls-33" d="M20.52,25.71c.52-.26,.9-.61,1.2-1.01,.31-.4,.53-.86,.67-1.37,.31-1,.36-2.2,.35-3.35,0-.29-.02-.58-.03-.87,0-.28-.03-.55-.05-.82-.04-.53-.09-1.03-.14-1.46-.09-.84-.18-1.4-.18-1.4,0,0-.1,.11-.27,.3-.16,.19-.4,.46-.66,.82-.26,.36-.56,.77-.84,1.25-.28,.48-.57,1-.8,1.56-.23,.57-.44,1.14-.57,1.73-.13,.59-.19,1.18-.16,1.75,.07,1.14,.52,2.15,1.49,2.88Z"/>
      <path class="cls-3" d="M28.96,25.1c.39-.28,.76-.57,1.08-.86,.33-.28,.62-.54,.86-.78,.24-.24,.44-.43,.57-.57,.13-.14,.21-.22,.21-.22,0,0-.5-.11-1.28-.19-.39-.04-.84-.06-1.34-.05s-1.04,.03-1.57,.12c-1.08,.16-2.16,.52-3,1.14-.4,.32-.74,.69-.98,1.12-.22,.44-.34,.94-.31,1.5,1.12,.49,2.17,.44,3.13,.16,.49-.14,.96-.34,1.39-.58,.44-.24,.86-.5,1.24-.79Z"/>
      <path class="cls-8" d="M26.81,70.76c3.18,2.64,7.05,4.44,10.85,5.97,3.11,1.26,7.1,3.31,11.16,5.23-3.65,1.14-7.26,2.07-10.15,2.55-.38,.06,1.57,2.05,1.94,1.94,3.36-1.01,6.78-2.24,10.14-3.6,3.68,1.67,7.31,3.1,10.3,3.6,.38,.06,1.55-1.94,1.17-2-2.83-.47-6.12-1.32-9.55-2.39,5.64-2.37,11.08-5.05,15.78-7.61,5.1-2.78,8.93-6.72,11.45-11.97,2.33-4.85,3.98-10.22,4.22-15.62,.34-7.47-2.17-14.79-6.06-21.09-1.14-1.84-2.41-3.68-3.83-5.39,.12-.47,.14-.93,.06-1.37-.09-.51-.3-1.01-.6-1.45-.59-.9-1.55-1.63-2.53-2.18-.99-.54-2.01-.88-2.78-1.06-.39-.09-.7-.15-.92-.18-.11-.01-.2-.02-.26-.03-.05,0-.08,0-.08,0,0,0,.01,.03,.03,.08,.03,.05,.06,.13,.11,.22,.1,.2,.25,.48,.43,.82,.37,.68,.86,1.56,1.45,2.43,.29,.44,.62,.85,.96,1.25,.17,.19,.35,.38,.54,.55,.18,.18,.38,.34,.58,.48,.41,.28,.85,.51,1.33,.63,.37,.09,.76,.13,1.18,.11,2.71,3.21,4.93,6.93,6.62,10.67,2.15,4.76,3.3,9.95,3.17,15.18-.13,5.7-2.03,11.49-4.59,16.55-1.99,3.94-4.89,7.15-8.59,9.55-3.31,2.14-6.95,3.75-10.56,5.31-2.71,1.17-5.92,2.37-9.18,3.44-6.98-2.33-14.27-5.48-19.33-8.34-2.64-1.49-5.03-3.32-7.01-5.63-1.98-2.31-3.4-5.04-4.55-7.84-2.17-5.3-3.55-10.79-3.21-16.55,.39-6.72,3.03-13.14,6.71-18.72,.94-1.43,1.97-2.85,3.08-4.19,.4,.02,.78-.02,1.14-.11,.49-.12,.92-.35,1.33-.63,.2-.14,.4-.3,.58-.48,.19-.17,.37-.35,.54-.55,.34-.4,.67-.81,.96-1.25,.59-.87,1.09-1.76,1.45-2.43,.18-.34,.33-.62,.43-.82,.05-.1,.09-.17,.11-.23,.02-.05,.03-.08,.03-.08,0,0-.03,0-.08,0-.06,0-.14,.01-.25,.03-.22,.03-.54,.09-.92,.18-.77,.18-1.79,.52-2.78,1.06-.98,.55-1.94,1.27-2.53,2.18-.31,.44-.51,.94-.6,1.45-.08,.43-.07,.88,.05,1.35-2.6,3.08-4.74,6.64-6.41,10.19-2.05,4.4-3.29,9.15-3.48,14.01-.21,5.58,1.3,10.92,3.4,16.04,1.68,4.12,4.09,7.86,7.54,10.72Z"/>
      <path class="cls-64" d="M67.66,80.89c1.27-.22,2.45-.63,3.3-.99,.84-.36,1.37-.67,1.37-.67,0,0-.54-.22-1.36-.49-.83-.28-1.93-.63-3.1-.92-1.17-.28-2.38-.49-3.5-.44-.56,.02-1.09,.12-1.61,.3-.52,.18-1,.47-1.53,.86,.34,1.17,1.36,1.9,2.56,2.24,1.21,.35,2.59,.32,3.87,.1Z"/>
      <path class="cls-15" d="M61.39,76.71c.51-.1,.99-.34,1.43-.66,.86-.65,1.52-1.64,1.98-2.66,.46-1.02,.7-2.06,.84-2.84,.06-.39,.1-.72,.12-.94,.02-.23,.03-.36,.03-.36,0,0-.4,.22-.99,.59-.59,.37-1.38,.89-2.15,1.52-.76,.62-1.51,1.35-2.03,2.19-.52,.84-.85,1.81-.82,3.03,.53,.23,1.09,.25,1.6,.15Z"/>
      <path class="cls-39" d="M76.25,72.26c-1.21,.04-2.44,.12-3.49,.45-1.05,.33-1.93,.89-2.51,1.92,.72,.97,1.76,1.43,2.92,1.48,1.17,.06,2.46-.28,3.64-.82,1.18-.54,2.26-1.26,3.01-1.89,.38-.31,.68-.59,.89-.79,.21-.2,.32-.32,.32-.32,0,0-.58-.01-1.5-.03-.9,0-2.09-.03-3.29,0Z"/>
      <path class="cls-54" d="M68.22,72.83c1.15,.06,2.07-.49,2.74-1.33,.66-.84,1.06-1.96,1.21-3.05,.16-1.1,.11-2.14-.02-2.91-.06-.38-.12-.69-.18-.91-.06-.22-.1-.34-.1-.34,0,0-.07,.07-.19,.21-.13,.13-.31,.32-.51,.56-.43,.48-1,1.15-1.58,1.93-.56,.78-1.13,1.68-1.45,2.66-.31,.98-.39,2.05,.07,3.17Z"/>
      <path class="cls-63" d="M84.04,66.85c.12-.14,.24-.29,.35-.44l.17-.23,.13-.18c.17-.23,.33-.47,.48-.7,.3-.46,.56-.9,.78-1.28,.21-.38,.38-.7,.49-.93,.11-.23,.16-.37,.16-.37,0,0-.53,.16-1.36,.41-.82,.26-1.9,.64-2.95,1.14-.27,.12-.52,.25-.78,.4-.28,.16-.55,.31-.81,.48-.26,.16-.52,.31-.76,.48-.24,.16-.48,.32-.7,.5-.88,.69-1.54,1.48-1.81,2.65,.97,.73,2.11,.85,3.28,.48,1.17-.37,2.37-1.25,3.33-2.4Z"/>
      <path class="cls-52" d="M77.01,61.98c-.31-1.08-.75-2.06-1.11-2.76-.18-.35-.35-.63-.48-.83-.13-.2-.2-.31-.2-.31,0,0-.04,.11-.11,.3-.08,.19-.2,.47-.32,.8-.13,.34-.26,.74-.38,1.18-.12,.43-.26,.99-.29,1.31-.1,.77-.23,1.69-.17,2.67,.06,.97,.31,2,1.07,2.94,1.11-.26,1.83-1.08,2.14-2.09,.07-.25,.14-.51,.16-.78,.02-.27,.03-.54,.02-.81-.02-.27-.06-.54-.11-.8-.06-.28-.12-.56-.2-.83Z"/>
      <path class="cls-40" d="M89.26,53.52c.06-.25,.09-.4,.09-.4,0,0-.49,.26-1.27,.68-.76,.42-1.76,1-2.7,1.68-.98,.67-1.94,1.42-2.56,2.29-.15,.22-.31,.44-.44,.66-.13,.23-.24,.46-.31,.71-.15,.49-.2,1.02-.1,1.6,1.16,.34,2.23,.08,3.19-.54,.24-.15,.47-.33,.7-.52,.22-.19,.45-.4,.64-.63,.39-.46,.75-.97,1.07-1.49,.67-1.04,1.07-2.17,1.36-3.01,.14-.42,.25-.78,.32-1.03Z"/>
      <path class="cls-74" d="M79.19,59.78c.46-.32,.8-.73,1.02-1.19,.11-.23,.2-.47,.26-.71,.06-.25,.11-.5,.1-.77,0-1.07-.3-2.19-.77-3.19-.5-1-1.12-1.87-1.61-2.47-.25-.3-.46-.54-.63-.71-.16-.16-.26-.26-.26-.26,0,0-.02,.11-.05,.31-.04,.2-.11,.47-.16,.82-.13,.68-.19,1.62-.25,2.61-.02,.5,0,1.02,.07,1.54,.02,.13,.04,.26,.06,.39s.04,.25,.06,.38c.05,.26,.11,.51,.19,.75,.32,.98,.92,1.89,1.98,2.5Z"/>
      <path class="cls-58" d="M86.67,46.18c-.2,.22-.39,.44-.57,.67-.18,.23-.37,.46-.55,.69-.36,.47-.66,.94-.89,1.43-.11,.24-.2,.49-.27,.74-.08,.25-.14,.5-.17,.75-.06,.51,0,1.04,.21,1.59,1.2,.11,2.21-.35,3.04-1.15,.2-.2,.4-.42,.59-.66,.18-.24,.33-.5,.48-.77,.3-.54,.55-1.12,.76-1.71,.11-.29,.19-.59,.26-.89,.07-.29,.13-.58,.18-.86,.1-.56,.2-1.09,.23-1.54,.05-.91,.04-1.51,.04-1.51,0,0-.44,.37-1.07,.96-.6,.59-1.48,1.39-2.27,2.26Z"/>
      <path class="cls-12" d="M82.32,50.05c.07-.24,.11-.49,.12-.75,0-.26-.03-.51-.08-.77-.1-.52-.28-1.03-.52-1.52-.06-.12-.12-.24-.19-.36-.07-.12-.15-.24-.23-.35-.16-.23-.33-.46-.5-.67-.35-.43-.71-.81-1.07-1.15-.17-.17-.36-.32-.54-.47-.18-.14-.35-.27-.51-.38-.64-.46-1.09-.71-1.09-.71,0,0,0,.44,.06,1.1,.03,.17,.03,.35,.04,.54,.02,.19,.03,.4,.06,.61,.05,.42,.14,.89,.24,1.36,.08,.47,.2,.96,.37,1.44,.08,.24,.18,.48,.29,.71,.1,.23,.21,.46,.33,.68,.5,.88,1.27,1.64,2.42,2.04,.39-.4,.64-.86,.78-1.35Z"/>
      <path class="cls-61" d="M84.47,40.03c-.12,.53-.15,1.04-.08,1.55,.04,.25,.12,.5,.2,.75,.08,.25,.21,.49,.36,.74,1.2-.17,2.12-.85,2.69-1.84,.3-.49,.52-1.05,.71-1.65,.16-.6,.24-1.22,.29-1.85,.02-.31,.04-.63,.05-.93-.01-.3-.03-.6-.05-.88-.04-.57-.1-1.1-.17-1.55-.18-.89-.35-1.46-.35-1.46,0,0-.33,.47-.78,1.2-.22,.36-.48,.79-.77,1.26-.28,.47-.57,.97-.84,1.49-.26,.51-.54,1.05-.76,1.59-.23,.54-.39,1.07-.49,1.59Z"/>
      <path class="cls-62" d="M82.18,39.88c-.22-.47-.54-.92-.9-1.33-.18-.2-.37-.4-.57-.58-.2-.19-.43-.35-.65-.51-.9-.64-1.8-1.09-2.55-1.36-.73-.27-1.23-.39-1.23-.39,0,0,.1,.42,.34,1.03,.1,.31,.22,.68,.39,1.06,.08,.19,.17,.39,.27,.6,.1,.21,.18,.42,.29,.63,.2,.43,.45,.85,.73,1.27,.26,.41,.56,.81,.92,1.17,.74,.7,1.61,1.26,2.83,1.37,.15-.24,.26-.48,.34-.73,.08-.25,.1-.5,.1-.75,0-.5-.12-1-.32-1.47Z"/>
      <path class="cls-34" d="M83.83,23.75s-.2,.52-.48,1.35c-.28,.82-.6,1.9-.89,3.04-.14,.57-.24,1.14-.33,1.71-.09,.57-.13,1.13-.09,1.66,.03,.26,.05,.52,.1,.78,.05,.25,.12,.5,.23,.73,.1,.23,.23,.45,.39,.66,.15,.21,.33,.42,.54,.61,.56-.24,1.01-.58,1.37-1,.37-.42,.59-.91,.76-1.46,.08-.27,.14-.56,.19-.86,.04-.3,.07-.6,.07-.9,0-.61-.07-1.24-.16-1.85-.24-1.21-.63-2.36-1.01-3.15-.18-.41-.35-.74-.46-.97-.12-.22-.2-.35-.2-.35Z"/>
      <path class="cls-21" d="M80.24,32.27c-.11-.22-.25-.44-.42-.63-.34-.39-.74-.75-1.19-1.05-.45-.3-.97-.54-1.46-.74-.25-.1-.5-.19-.75-.27-.25-.08-.5-.14-.75-.19-.48-.11-.93-.18-1.31-.23-.38-.05-.7-.07-.93-.08-.23-.01-.36,0-.36,0,0,0,.05,.09,.16,.26,.1,.16,.23,.4,.42,.68,.09,.14,.19,.29,.31,.44,.06,.08,.12,.16,.18,.24,.05,.08,.11,.17,.17,.25,.24,.34,.53,.7,.85,1.05,.3,.36,.64,.72,1.01,1.04,.09,.08,.2,.16,.29,.24,.09,.08,.19,.16,.29,.23,.2,.15,.4,.29,.62,.41,.43,.25,.92,.44,1.43,.56,.5,.11,1.06,.14,1.65,.04,.08-.27,.13-.53,.14-.79,0-.25-.03-.5-.09-.74-.06-.24-.15-.47-.26-.69Z"/>
      <path class="cls-59" d="M79.48,26.28c.97-.73,1.41-1.74,1.48-2.88,.03-.56-.03-1.15-.16-1.75-.13-.59-.34-1.17-.57-1.73-.24-.56-.53-1.08-.81-1.56-.28-.48-.59-.89-.84-1.25-.26-.36-.49-.63-.66-.82-.16-.19-.26-.29-.26-.29,0,0-.09,.56-.18,1.4-.05,.43-.1,.93-.14,1.46-.02,.27-.04,.54-.05,.82-.02,.28-.03,.57-.03,.87-.01,1.16,.04,2.35,.35,3.36,.15,.51,.36,.97,.67,1.37,.3,.41,.68,.75,1.2,1.01Z"/>
      <path class="cls-47" d="M75.51,24.26c-.83-.62-1.92-.98-3-1.14-.53-.09-1.07-.12-1.57-.12-.5,0-.95,.02-1.34,.06-.78,.08-1.28,.19-1.28,.19,0,0,.07,.08,.2,.22,.13,.14,.34,.33,.57,.57,.24,.24,.54,.5,.86,.78,.32,.29,.69,.57,1.07,.86,.38,.29,.81,.56,1.25,.79,.43,.24,.89,.45,1.38,.58,.96,.28,2.01,.33,3.13-.16,.03-.55-.08-1.06-.31-1.5-.24-.43-.58-.8-.98-1.12Z"/>
    </g>
    <g>
      <path class="cls-19" d="M66.9,56.04c-1.93,0-4.62-.11-5.83-.2-.86-.07-.93-.19-.93-.22,0-.04,.03-.05,.08-.07,.04-.02,.1-.03,.15-.08,.27-.2,.21-.77,.14-1.37v-.02s-1.62-17.59-1.62-17.59c0,0,0-.01-.01-.02,0,0,0,0,0,0,0,0-.01,0-.02,0l-8.36,17.72c-.71,1.49-.94,1.78-1.1,1.78s-.41-.37-1.03-1.54c-.36-.68-1.32-2.54-3.82-7.57-.06-.13-.11-.22-.12-.25-.31-.62-4.19-8.95-4.55-9.84,0,0,0-.01-.02-.01,0,0,0,0,0,0,0,0-.01,0-.01,.02l-1.38,15.87v.15c-.04,.47-.07,.91-.07,1.43,0,.79,.35,1.34,.92,1.47,.57,.14,1.01,.14,1.22,.14,.24,0,.32,.05,.32,.08,0,.02-.09,.12-.49,.12-.85,0-1.9-.05-2.6-.08-.32-.01-.55-.02-.63-.02-.11,0-.4,.01-.76,.03-.63,.03-1.49,.07-2.07,.07-.46,0-.56-.1-.56-.12,0-.06,.11-.08,.32-.08,.27,0,.51,0,1.01-.1,1.02-.2,1.18-1.57,1.34-2.89l.02-.16,2.39-21.6c.11-.84,.33-.96,.45-.96,.14,0,.31,.25,.59,.83l10.14,20.86s0,.02,.02,.02h0s.01-.01,.02-.02l9.77-20.86c.31-.7,.48-.83,.66-.83,.07,0,.25,.09,.35,.93l2.26,20.65c.14,1.25,.37,3.35,1.83,3.82,.98,.3,1.76,.3,2.09,.3,.24,0,.35,.03,.35,.08,0,.02-.09,.12-.49,.12"/>
      <path class="cls-14" d="M38.59,55.67c-.44-.2-.99-.69-1.24-.98-.32,.26-.65,.6-1.39,.96-.78,.38-1.79,.28-2.21,.25,0,0,0,.01,0,.02,0,.03,.1,.13,.57,.13,.91,0,2.53-.1,2.83-.1,.27,0,1.99,.1,3.23,.1,.4,0,.51-.1,.51-.13-.91,.05-1.73,.02-2.3-.25"/>
      <path class="cls-32" d="M63.91,55.5c-.9-.37-1.49-.77-1.84-1.04-.14,.31-.52,.74-.97,.98-.24,.13-.6,.17-.97,.16,0,0,0,0,0,.01,0,.07,.17,.17,.94,.24,1.28,.1,4.01,.2,5.83,.2,.4,0,.51-.1,.51-.13-1.2,.04-2.39,.04-3.5-.42"/>
      <path class="cls-60" d="M39.89,33.87s-.61-3.1-.64-3.75c-.16,.04-.33,.27-.42,.97l-2.39,21.6c-.17,1.38-.3,2.83-1.35,3.03-.51,.1-.74,.1-1.01,.1-.21,0-.31,.03-.33,.08,.42,.03,1.43,.13,2.21-.25,.74-.36,1.06-.7,1.38-.95,.58-5.96,1.93-19.91,1.96-20.05,.04-.19,.13-.45,.59-.77"/>
      <path class="cls-26" d="M67.04,55.82c-.34,0-1.11,0-2.09-.3-1.45-.47-1.68-2.59-1.82-3.81l-2.26-20.65c-.1-.81-.27-.94-.37-.94l-.61,3.54,2.17,20.81c.36,.27,.94,.67,1.84,1.04,1.11,.46,2.29,.46,3.5,.42,0-.07-.1-.1-.37-.1"/>
      <path class="cls-10" d="M37.34,54.7s0,0,0,0c.25,.29,.81,.78,1.24,.98,.57,.27,1.39,.3,2.3,.25,0-.07-.13-.1-.34-.1s-.64,0-1.21-.13c-.47-.1-.91-.54-.91-1.45,0-.57,.03-1.04,.07-1.58l1.38-15.87-.58-2.14c-.03,.15-1.38,14.09-1.96,20.05"/>
      <path class="cls-38" d="M39.89,33.87c-.46,.32-.55,.59-.59,.77l.58,2.14c.37,.91,4.25,9.23,4.55,9.84,.17,.34,3.07,6.17,3.94,7.82,.64,1.21,.88,1.55,1.04,1.55l.16-2.22-9.68-19.9"/>
      <path class="cls-55" d="M39.91,30.95c-.3-.64-.47-.84-.61-.84-.02,0-.03,0-.05,0,.03,.65,.64,3.75,.64,3.75l9.68,19.9c.35-.14,.45-.27,.45-.27l.03-1.69-10.14-20.86"/>
      <path class="cls-4" d="M59.83,30.95l-9.77,20.86-.03,1.69s9.2-19.53,9.26-19.62c.06-.09,.39-.2,.61-.23l.61-3.54c-.2,0-.37,.17-.67,.84"/>
      <path class="cls-68" d="M50.03,53.5s-.1,.13-.45,.27l-.16,2.22c.17,0,.4-.3,1.11-1.79l8.36-17.72,.4-2.6c-.06,.09-9.26,19.62-9.26,19.62"/>
      <path class="cls-44" d="M59.89,33.65c-.21,.03-.54,.14-.61,.23l-.4,2.6,1.62,17.59c.07,.61,.13,1.18-.13,1.38-.1,.1-.22,.07-.23,.15,.37,0,.73-.03,.97-.16,.45-.25,.83-.68,.97-.98l-2.17-20.81"/>
      <path class="cls-71" d="M39.89,33.87c-.46,.32-.55,.59-.59,.77l.58,2.14c.37,.91,4.25,9.23,4.55,9.84,.17,.34,3.07,6.17,3.94,7.82,.64,1.21,.88,1.55,1.04,1.55l.16-2.22-9.68-19.9"/>
      <path class="cls-70" d="M39.91,30.95c-.3-.64-.47-.84-.61-.84-.02,0-.03,0-.05,0,.03,.65,.64,3.75,.64,3.75l9.68,19.9c.35-.14,.45-.27,.45-.27l.03-1.69-10.14-20.86"/>
      <path class="cls-20" d="M59.89,33.65c-.21,.03-.54,.14-.61,.23l-.4,2.6,1.62,17.59c.01,.13,.03,.25,.04,.37h1.52l-2.17-20.79"/>
      <path class="cls-31" d="M63.13,51.71l-2.26-20.65c-.1-.81-.27-.94-.37-.94l-.61,3.54,2.17,20.79h1.72c-.44-.85-.57-1.97-.65-2.73"/>
      <path class="cls-23" d="M38.43,54.24c0-.57,.03-1.04,.07-1.58l1.38-15.87-.58-2.14c-.03,.15-1.37,13.91-1.95,19.94h1.1c-.02-.11-.02-.22-.02-.35"/>
      <path class="cls-2" d="M36.44,52.69c-.09,.71-.16,1.43-.36,2h1.26c.56-5.84,1.87-19.29,1.95-20.01h-.86l-1.99,18.01"/>
      <path class="cls-11" d="M67.04,55.82c-.34,0-1.11,0-2.09-.3-.54-.18-.91-.58-1.17-1.08h-1.72v.02c.36,.27,.94,.67,1.84,1.04,1.11,.46,2.29,.46,3.5,.42,0-.07-.1-.1-.37-.1"/>
      <path class="cls-17" d="M40.55,55.82c-.2,0-.64,0-1.21-.13-.41-.09-.79-.43-.89-1.1h-1.1s0,.08-.01,.11c0,0,0,0,0,0,.25,.29,.81,.78,1.24,.98,.57,.27,1.39,.3,2.3,.25,0-.07-.13-.1-.34-.1"/>
      <path class="cls-43" d="M39.89,33.87s-.61-3.1-.64-3.75c-.16,.04-.33,.27-.42,.97l-.4,3.59h.86s0-.03,0-.03c.04-.19,.13-.45,.59-.77"/>
      <path class="cls-45" d="M38.59,55.67c-.44-.2-.99-.69-1.24-.98-.32,.26-.65,.6-1.39,.96-.78,.38-1.79,.28-2.21,.25,0,0,0,.01,0,.02,0,.03,.1,.13,.57,.13,.91,0,2.53-.1,2.83-.1,.27,0,1.99,.1,3.23,.1,.4,0,.51-.1,.51-.13-.91,.05-1.73,.02-2.3-.25"/>
      <path class="cls-9" d="M63.91,55.5c-.9-.37-1.49-.77-1.84-1.04-.14,.31-.52,.74-.97,.98-.24,.13-.6,.17-.97,.16,0,0,0,0,0,.01,0,.07,.17,.17,.94,.24,1.28,.1,4.01,.2,5.83,.2,.4,0,.51-.1,.51-.13-1.2,.04-2.39,.04-3.5-.42"/>
      <path class="cls-69" d="M59.89,33.65c-.21,.03-.54,.14-.61,.23l-.4,2.6v.02h1.31l-.3-2.85"/>
      <path class="cls-6" d="M50.06,51.81l-.03,1.69s.5-1.06,1.26-2.68l-.52-.52-.71,1.52"/>
      <path class="cls-28" d="M59.89,33.65l.61-3.54c-.2,0-.37,.17-.67,.84l-1.19,2.54,.56,.56c.05-.11,.08-.17,.09-.18,.06-.09,.39-.2,.61-.23"/>
      <path class="cls-18" d="M50.03,53.5s-.1,.13-.45,.27l-.16,2.22c.17,0,.4-.3,1.11-1.79l7.87-16.7-.57-.57c-2.61,5.51-7.81,16.56-7.81,16.56"/>
      <path class="cls-35" d="M59.29,33.88s-.59,1.24-1.45,3.06l.57,.57,.48-1.02,.4-2.6"/>
      <path class="cls-37" d="M63.13,51.71l-2.26-20.65c-.1-.81-.27-.94-.37-.94l-.61,3.54,2.17,20.79h1.72c-.44-.85-.57-1.97-.65-2.73"/>
      <path class="cls-24" d="M38.43,54.24c0-.57,.03-1.04,.07-1.58l1.38-15.87-.58-2.14c-.03,.15-1.37,13.91-1.95,19.94h1.1c-.02-.11-.02-.22-.02-.35"/>
      <path class="cls-42" d="M39.89,33.87s-.61-3.1-.64-3.75c-.16,.04-.33,.27-.42,.97l-2.39,21.6c-.17,1.38-.3,2.83-1.35,3.03-.51,.1-.74,.1-1.01,.1-.21,0-.31,.03-.33,.08,.42,.03,1.43,.13,2.21-.25,.74-.36,1.06-.7,1.38-.95,.58-5.96,1.93-19.91,1.96-20.05,.04-.19,.13-.45,.59-.77"/>
      <path class="cls-48" d="M39.89,33.87c-.46,.32-.55,.59-.59,.77l.58,2.14c.37,.91,4.25,9.23,4.55,9.84,.17,.34,3.07,6.17,3.94,7.82,.64,1.21,.88,1.55,1.04,1.55l.16-2.22-9.68-19.9"/>
      <path class="cls-51" d="M39.91,30.95c-.3-.64-.47-.84-.61-.84-.02,0-.03,0-.05,0,.03,.65,.64,3.75,.64,3.75l9.68,19.9c.35-.14,.45-.27,.45-.27l.03-1.69-10.14-20.86"/>
      <path class="cls-25" d="M59.29,33.88c-.06,.09-9.26,19.62-9.26,19.62h.84s8.02-17.02,8.02-17.02l.4-2.6"/>
      <path class="cls-36" d="M59.83,30.95l-9.77,20.86-.03,1.69s9.2-19.53,9.26-19.62c.06-.09,.39-.2,.61-.23l.61-3.54c-.2,0-.37,.17-.67,.84"/>
      <path class="cls-7" d="M59.89,33.65c-.21,.03-.54,.14-.61,.23l-.4,2.6,1.62,17.59c.07,.61,.13,1.18-.13,1.38-.1,.1-.22,.07-.23,.15,.37,0,.73-.03,.97-.16,.45-.25,.83-.68,.97-.98l-2.17-20.81"/>
    </g>
    <path class="cls-30" d="M49.67,22.45c-5.42,0-10,1.81-13.25,5.23-1.69,1.78-3,3.98-3.89,6.53-.93,2.68-1.41,5.75-1.41,9.13,0,3.61,.53,6.98,1.57,10.04,1,2.93,2.45,5.51,4.31,7.67,3.68,4.26,8.81,6.61,14.45,6.61,1.89,0,6.73-.39,10.91-3.96,2.01-1.72,3.58-3.95,4.69-6.62,1.28-3.12,1.93-6.89,1.93-11.19,0-7.14-2.04-13.16-5.89-17.43-3.5-3.87-8.26-6-13.42-6m.06,47.56c-4.13,0-7.88-.77-11.16-2.29-2.97-1.37-5.54-3.35-7.63-5.88-3.67-4.43-5.78-10.53-5.78-16.72,0-5.67,2.21-11.74,5.92-16.23,3.21-3.89,9.12-8.53,19.03-8.53,3.54,0,6.87,.55,9.9,1.64,3.02,1.08,5.67,2.66,7.89,4.7,4.64,4.28,7.1,10.3,7.1,17.41s-2.45,13.52-6.91,18.27c-2.25,2.4-4.93,4.28-7.97,5.58-3.18,1.36-6.68,2.05-10.39,2.05"/>
    <path class="cls-49" d="M51.52,68.9c-12.13,0-23.29-7.9-23.29-24.26,0-15.41,10.22-23.3,21.41-23.3s22.47,7.04,22.47,24.59-14.56,22.98-20.59,22.98m-1.41-48.58c-17.5,0-24.98,14.52-24.98,24.79,0,11.41,7.23,24.92,24.6,24.92,15.28,0,25.3-11.73,25.3-25.93s-10.65-23.78-24.92-23.78"/>
    <path class="cls-65" d="M51.44,67.63c-11.41,0-20.29-9.51-20.29-24.28,0-13.89,7.93-20.86,18.51-20.86,10.02,0,19.28,8.18,19.28,23.4,0,18.45-11.79,21.75-17.5,21.75m-1.8-46.29c-11.19,0-21.41,7.89-21.41,23.3,0,16.37,11.16,24.26,23.29,24.26,6.03,0,20.59-5.08,20.59-22.98s-11.35-24.59-22.47-24.59"/>
    <path class="cls-29" d="M51.52,68.9c-6.7,0-13.1-2.41-17.49-7.32l-1.79,1.74c3.97,4.01,9.71,6.71,17.49,6.71,1.9,0,3.73-.18,5.46-.53v-1.07c-1.39,.33-2.65,.47-3.67,.47"/>
    <path class="cls-46" d="M66.56,33.85h3.26c-3.87-8.77-12.05-12.49-20.12-12.51v1.14c6.92,.01,13.47,3.93,16.85,11.37"/>
  </g>
</svg>